<mxfile host="app.diagrams.net" agent="Mozilla/5.0 (X11; Linux x86_64) AppleWebKit/537.36 (KHTML, like Gecko) Chrome/128.0.0.0 Safari/537.36" version="24.7.17">
  <diagram name="Page-1" id="fSlTkEy1OWefV5B0Ldui">
    <mxGraphModel dx="2227" dy="724" grid="0" gridSize="10" guides="1" tooltips="1" connect="1" arrows="1" fold="1" page="1" pageScale="1" pageWidth="827" pageHeight="1169" math="0" shadow="0">
      <root>
        <mxCell id="0" />
        <mxCell id="1" parent="0" />
        <mxCell id="AGbFRjodJW2TYSA8YHDU-11" style="edgeStyle=orthogonalEdgeStyle;rounded=0;orthogonalLoop=1;jettySize=auto;html=1;exitX=1;exitY=0.5;exitDx=0;exitDy=0;" parent="1" source="AGbFRjodJW2TYSA8YHDU-1" edge="1">
          <mxGeometry relative="1" as="geometry">
            <mxPoint x="582.7999877929688" y="453" as="targetPoint" />
          </mxGeometry>
        </mxCell>
        <mxCell id="AGbFRjodJW2TYSA8YHDU-13" style="edgeStyle=orthogonalEdgeStyle;rounded=0;orthogonalLoop=1;jettySize=auto;html=1;exitX=0;exitY=0.5;exitDx=0;exitDy=0;" parent="1" source="AGbFRjodJW2TYSA8YHDU-1" edge="1">
          <mxGeometry relative="1" as="geometry">
            <mxPoint x="196.4000244140625" y="453" as="targetPoint" />
          </mxGeometry>
        </mxCell>
        <mxCell id="AGbFRjodJW2TYSA8YHDU-15" style="edgeStyle=orthogonalEdgeStyle;rounded=0;orthogonalLoop=1;jettySize=auto;html=1;" parent="1" source="AGbFRjodJW2TYSA8YHDU-1" edge="1">
          <mxGeometry relative="1" as="geometry">
            <mxPoint x="379" y="341" as="targetPoint" />
            <Array as="points">
              <mxPoint x="346" y="389" />
              <mxPoint x="421" y="389" />
              <mxPoint x="421" y="341" />
            </Array>
          </mxGeometry>
        </mxCell>
        <mxCell id="AGbFRjodJW2TYSA8YHDU-1" value="&lt;font style=&quot;font-size: 15px;&quot;&gt;Function Design Pattern&lt;/font&gt;" style="rounded=0;whiteSpace=wrap;html=1;" parent="1" vertex="1">
          <mxGeometry x="253" y="436" width="186" height="101" as="geometry" />
        </mxCell>
        <mxCell id="GJ6GeP_vHWgiaP8oP1yH-1" style="edgeStyle=orthogonalEdgeStyle;shape=flexArrow;rounded=0;orthogonalLoop=1;jettySize=auto;html=1;" edge="1" parent="1" source="AGbFRjodJW2TYSA8YHDU-12">
          <mxGeometry relative="1" as="geometry">
            <mxPoint x="692" y="751.1999918619792" as="targetPoint" />
          </mxGeometry>
        </mxCell>
        <mxCell id="AGbFRjodJW2TYSA8YHDU-12" value="&lt;span style=&quot;font-size: 17px;&quot;&gt;&amp;nbsp;Define the purpose&lt;/span&gt;" style="whiteSpace=wrap;html=1;align=left;strokeWidth=2;pointerEvents=1;" parent="1" vertex="1">
          <mxGeometry x="581" y="426" width="222" height="73" as="geometry" />
        </mxCell>
        <mxCell id="GJ6GeP_vHWgiaP8oP1yH-2" value="&lt;font style=&quot;font-size: 15px;&quot;&gt;use a descriptive name&lt;/font&gt;" style="rounded=1;whiteSpace=wrap;html=1;" vertex="1" parent="1">
          <mxGeometry x="506" y="746" width="323" height="60" as="geometry" />
        </mxCell>
        <mxCell id="GJ6GeP_vHWgiaP8oP1yH-3" value="Text" style="text;html=1;align=center;verticalAlign=middle;resizable=0;points=[];autosize=1;strokeColor=none;fillColor=none;" vertex="1" parent="1">
          <mxGeometry x="345" y="382" width="40" height="26" as="geometry" />
        </mxCell>
        <mxCell id="GJ6GeP_vHWgiaP8oP1yH-5" value="&lt;font style=&quot;font-size: 18px;&quot;&gt;Define the desire result&lt;/font&gt;" style="rounded=1;whiteSpace=wrap;html=1;" vertex="1" parent="1">
          <mxGeometry x="-25" y="419" width="229" height="60" as="geometry" />
        </mxCell>
        <mxCell id="GJ6GeP_vHWgiaP8oP1yH-6" value="&lt;font style=&quot;font-size: 15px;&quot;&gt;Determine the require data&lt;/font&gt;" style="rounded=0;whiteSpace=wrap;html=1;" vertex="1" parent="1">
          <mxGeometry x="83" y="295" width="302" height="53" as="geometry" />
        </mxCell>
      </root>
    </mxGraphModel>
  </diagram>
</mxfile>
